<svg xmlns="http://www.w3.org/2000/svg" viewBox="0 0 500 500"><g id="freepik--background-complete--inject-30"><path d="M454.82,172.14H341.64s11.22-30.65,28.49-30.65,22.68,21.15,22.68,21.15,11.65-11.49,21.23-11.49,17.89,15.19,17.89,15.19S445.46,158.17,454.82,172.14Z" style="fill:#ebebeb"></path><path d="M94,142.77H41.11s11.81-17.13,21.13-17.13S74.3,137.06,74.3,137.06s6.57-5.33,12.66-4.38S94,142.77,94,142.77Z" style="fill:#ebebeb"></path><path d="M386.49,86.9H333.6s11.82-17.12,21.13-17.12S366.79,81.2,366.79,81.2s6.58-5.33,12.66-4.38S386.49,86.9,386.49,86.9Z" style="fill:#ebebeb"></path><path d="M179.5,232.47H126.61s11.82-17.12,21.13-17.12,12.06,11.42,12.06,11.42,6.57-5.33,12.66-4.38S179.5,232.47,179.5,232.47Z" style="fill:#ebebeb"></path><path d="M214.29,80.2h-103s14.11-31.5,29.2-33.47,22.32,23.41,22.32,23.41,9.73-9,17.38-9S193.73,73,193.73,73,209,64.89,214.29,80.2Z" style="fill:#ebebeb"></path><path d="M381.08,253.41h-103s14.11-31.5,29.2-33.47,22.31,23.41,22.31,23.41,9.73-9,17.39-9,13.56,11.81,13.56,11.81S375.83,238.1,381.08,253.41Z" style="fill:#ebebeb"></path></g><g id="freepik--Floor--inject-30"><polygon points="48.22 276.09 98.67 275.85 149.11 275.76 250 275.59 350.89 275.76 401.33 275.84 451.78 276.09 401.33 276.33 350.89 276.42 250 276.59 149.11 276.42 98.67 276.33 48.22 276.09" style="fill:#263238"></polygon></g><g id="freepik--Shadow--inject-30"><ellipse cx="127.52" cy="446.34" rx="76.96" ry="13" style="fill:#ebebeb"></ellipse></g><g id="freepik--Sun--inject-30"><circle cx="250" cy="167.42" r="85.81" transform="matrix(0.16, -0.99, 0.99, 0.16, 45.79, 388.4)" style="fill:#407BFF"></circle><circle cx="250" cy="167.42" r="85.81" transform="matrix(0.16, -0.99, 0.99, 0.16, 45.79, 388.4)" style="fill:#fff;opacity:0.6000000000000001"></circle></g><g id="freepik--Runway--inject-30"><rect x="204.83" y="207.24" width="4.11" height="17.98" style="fill:#a6a6a6"></rect><rect x="206.89" y="225.22" width="1.36" height="6.43" style="fill:#a6a6a6"></rect><rect x="206.89" y="228.79" width="1.36" height="6.43" transform="translate(439.57 24.43) rotate(90)" style="fill:#a6a6a6"></rect><rect x="202.83" y="231.32" width="4.41" height="1.36" transform="translate(437.04 26.96) rotate(90)" style="fill:#a6a6a6"></rect><rect x="207.9" y="231.32" width="4.41" height="1.36" transform="translate(442.1 21.9) rotate(90)" style="fill:#a6a6a6"></rect><rect x="200.9" y="226.49" width="3.45" height="11.03" rx="1.08" style="fill:#263238"></rect><rect x="210.78" y="226.49" width="3.45" height="11.03" rx="1.08" style="fill:#263238"></rect><rect x="204.41" y="215.55" width="19.37" height="0.7" transform="translate(-86.14 263.92) rotate(-54.33)" style="fill:#a6a6a6"></rect><rect x="211.63" y="206.17" width="0.7" height="9.34" transform="translate(-84.01 252.98) rotate(-52.95)" style="fill:#a6a6a6"></rect><rect x="182.65" y="204.25" width="4.71" height="6.56" style="fill:#c7c7c7"></rect><ellipse cx="184.82" cy="222.57" rx="11.03" ry="11.21" style="fill:#c7c7c7"></ellipse><circle cx="184.45" cy="220.59" r="11.21" transform="translate(-101.96 195.04) rotate(-45)" style="fill:#c7c7c7"></circle><circle cx="184.45" cy="220.59" r="10.21" transform="translate(-61.2 370.05) rotate(-81.42)" style="fill:#263238"></circle><rect x="111.85" y="196.6" width="4.71" height="6.56" style="fill:#c7c7c7"></rect><ellipse cx="113.95" cy="209.91" rx="7.81" ry="7.94" style="fill:#c7c7c7"></ellipse><circle cx="113.68" cy="208.51" r="7.94" transform="translate(-115.42 271.06) rotate(-76.67)" style="fill:#c7c7c7"></circle><circle cx="113.68" cy="208.51" r="7.23" style="fill:#263238"></circle><polygon points="231.18 200.7 48.72 191.62 48.72 194.07 231.18 209.64 231.18 200.7" style="fill:#ebebeb"></polygon><polygon points="231.18 200.7 231.18 209.65 221.96 208.86 224.7 200.37 231.18 200.7" style="fill:#c7c7c7"></polygon><rect x="291.05" y="207.24" width="4.11" height="17.98" transform="translate(586.22 432.46) rotate(180)" style="fill:#a6a6a6"></rect><rect x="291.75" y="225.22" width="1.36" height="6.43" transform="translate(584.86 456.87) rotate(180)" style="fill:#a6a6a6"></rect><rect x="291.75" y="228.79" width="1.36" height="6.43" transform="translate(524.43 -60.43) rotate(90)" style="fill:#a6a6a6"></rect><rect x="292.76" y="231.32" width="4.41" height="1.36" transform="translate(526.96 -62.96) rotate(90)" style="fill:#a6a6a6"></rect><rect x="287.69" y="231.32" width="4.41" height="1.36" transform="translate(521.9 -57.9) rotate(90)" style="fill:#a6a6a6"></rect><rect x="295.64" y="226.49" width="3.45" height="11.03" rx="1.08" style="fill:#263238"></rect><rect x="285.76" y="226.49" width="3.45" height="11.03" rx="1.08" style="fill:#263238"></rect><rect x="285.55" y="206.21" width="0.7" height="19.37" transform="translate(-72.25 207.23) rotate(-35.67)" style="fill:#a6a6a6"></rect><rect x="283.35" y="210.49" width="9.34" height="0.7" transform="translate(-68.88 216.11) rotate(-37.05)" style="fill:#a6a6a6"></rect><rect x="312.65" y="204.25" width="4.71" height="6.56" transform="translate(630 415.05) rotate(180)" style="fill:#c7c7c7"></rect><ellipse cx="315.18" cy="222.57" rx="11.03" ry="11.21" style="fill:#c7c7c7"></ellipse><circle cx="315.55" cy="220.59" r="11.21" transform="translate(-63.56 287.74) rotate(-45)" style="fill:#c7c7c7"></circle><circle cx="315.55" cy="220.59" r="10.21" transform="translate(-34.28 59.8) rotate(-10.27)" style="fill:#263238"></circle><rect x="383.44" y="196.6" width="4.71" height="6.56" transform="translate(771.58 399.76) rotate(180)" style="fill:#c7c7c7"></rect><ellipse cx="386.05" cy="209.91" rx="7.81" ry="7.94" style="fill:#c7c7c7"></ellipse><circle cx="386.32" cy="208.51" r="7.94" transform="translate(-37.66 94.68) rotate(-13.33)" style="fill:#c7c7c7"></circle><circle cx="386.32" cy="208.51" r="7.23" style="fill:#263238"></circle><polygon points="268.82 200.7 451.28 191.62 451.28 194.07 268.82 209.64 268.82 200.7" style="fill:#ebebeb"></polygon><polygon points="268.82 200.7 268.82 209.65 278.04 208.86 275.3 200.37 268.82 200.7" style="fill:#c7c7c7"></polygon><polygon points="234.11 185.12 184.45 182.04 184.45 183.58 234.11 190.67 234.11 185.12" style="fill:#ebebeb"></polygon><polygon points="234.11 185.12 234.11 190.67 226.46 189.57 227.23 184.69 234.11 185.12" style="fill:#c7c7c7"></polygon><polygon points="265.89 185.12 315.55 182.04 315.55 183.58 265.89 190.67 265.89 185.12" style="fill:#ebebeb"></polygon><polygon points="265.88 185.12 265.88 190.67 273.54 189.57 272.77 184.69 265.88 185.12" style="fill:#c7c7c7"></polygon><rect x="228.03" y="195.92" width="17.74" height="23.91" rx="6.3" style="fill:#a6a6a6"></rect><rect x="254.23" y="195.92" width="17.74" height="23.91" rx="6.3" style="fill:#a6a6a6"></rect><rect x="248.64" y="216.98" width="2.73" height="11.92" style="fill:#a6a6a6"></rect><rect x="249.55" y="228.91" width="0.9" height="4.26" style="fill:#a6a6a6"></rect><rect x="249.55" y="231.27" width="0.9" height="4.26" transform="translate(483.4 -16.6) rotate(90)" style="fill:#a6a6a6"></rect><rect x="246.86" y="232.95" width="2.92" height="0.9" transform="translate(481.72 -14.92) rotate(90)" style="fill:#a6a6a6"></rect><rect x="250.22" y="232.95" width="2.92" height="0.9" transform="translate(485.08 -18.28) rotate(90)" style="fill:#a6a6a6"></rect><rect x="245.58" y="229.75" width="2.29" height="7.31" rx="0.72" style="fill:#263238"></rect><rect x="252.13" y="229.75" width="2.29" height="7.31" rx="0.72" style="fill:#263238"></rect><polygon points="251.05 165.85 248.95 165.85 249.62 111.66 250.37 111.66 251.05 165.85" style="fill:#c7c7c7"></polygon><path d="M250,217.66c-13.37,0-22.62-8.17-21.54-26,1-17,11.62-26,21.54-26s20.51,9.08,21.54,26C272.62,209.49,263.36,217.66,250,217.66Z" style="fill:#ebebeb"></path><polygon points="234.59 182.26 240.51 179.27 240.19 184.73 232.8 186.51 234.59 182.26" style="fill:#263238"></polygon><polygon points="249.66 179.16 249.66 184.71 240.82 184.69 241.15 179.16 249.66 179.16" style="fill:#263238"></polygon><polygon points="265.41 182.26 259.49 179.27 259.81 184.73 267.2 186.51 265.41 182.26" style="fill:#263238"></polygon><polygon points="250.34 179.16 250.34 184.71 259.18 184.69 258.85 179.16 250.34 179.16" style="fill:#263238"></polygon><path d="M269.61,205.84c-3.33,8-10.51,11.82-19.61,11.82s-16.28-3.78-19.61-11.82c6.43-3.94,12.44-5.09,19.61-5.09S263.18,201.9,269.61,205.84Z" style="fill:#407BFF"></path><polygon points="250.24 279.35 248.94 279.35 249.12 277.07 250.06 277.07 250.24 279.35" style="fill:#dbdbdb"></polygon><polygon points="250.47 282.19 248.74 282.19 248.85 280.57 250.34 280.57 250.47 282.19" style="fill:#dbdbdb"></polygon><polygon points="250.72 285.38 248.5 285.38 248.63 283.4 250.56 283.4 250.72 285.38" style="fill:#dbdbdb"></polygon><polygon points="250.99 288.73 248.24 288.73 248.4 286.6 250.81 286.6 250.99 288.73" style="fill:#dbdbdb"></polygon><polygon points="251.28 292.47 247.96 292.47 248.15 289.94 251.09 289.94 251.28 292.47" style="fill:#dbdbdb"></polygon><polygon points="251.63 296.66 247.65 296.66 247.87 293.69 251.38 293.69 251.63 296.66" style="fill:#dbdbdb"></polygon><polygon points="252.04 301.95 247.25 301.95 247.56 297.87 251.72 297.87 252.04 301.95" style="fill:#dbdbdb"></polygon><polygon points="252.53 308.1 246.78 308.1 247.16 303.16 252.15 303.16 252.53 308.1" style="fill:#dbdbdb"></polygon><polygon points="253.13 315.47 246.24 315.47 246.6 310.53 252.74 310.53 253.13 315.47" style="fill:#dbdbdb"></polygon><polygon points="254.15 328.21 245.28 328.21 245.99 318.71 253.38 318.71 254.15 328.21" style="fill:#dbdbdb"></polygon><polygon points="255.78 348.6 243.75 348.6 244.93 332.88 254.51 332.88 255.78 348.6" style="fill:#dbdbdb"></polygon><polygon points="258.46 382.13 241.22 382.13 243.31 354.41 256.25 354.41 258.46 382.13" style="fill:#dbdbdb"></polygon><polygon points="263.62 446.56 236.38 446.56 240.69 389.32 259.04 389.32 263.62 446.56" style="fill:#dbdbdb"></polygon><path d="M267,277.49a.75.75,0,1,1-1.5-.12.75.75,0,0,1,.81-.69A.74.74,0,0,1,267,277.49Z" style="fill:#407BFF"></path><path d="M265.67,276.79a.76.76,0,1,1-.7-.82A.77.77,0,0,1,265.67,276.79Z" style="fill:#407BFF"></path><path d="M268.5,278.25a.76.76,0,1,1-.7-.82A.77.77,0,0,1,268.5,278.25Z" style="fill:#407BFF"></path><path d="M270,279a.76.76,0,0,1-1.51-.11A.76.76,0,1,1,270,279Z" style="fill:#407BFF"></path><path d="M271.64,279.83a.83.83,0,1,1-.77-.9A.83.83,0,0,1,271.64,279.83Z" style="fill:#407BFF"></path><path d="M273.37,280.73a.83.83,0,0,1-1.66-.13.84.84,0,0,1,.9-.77A.83.83,0,0,1,273.37,280.73Z" style="fill:#407BFF"></path><path d="M275.19,281.66a.82.82,0,0,1-.89.77.83.83,0,1,1,.13-1.66A.82.82,0,0,1,275.19,281.66Z" style="fill:#407BFF"></path><path d="M277.12,282.66a.84.84,0,1,1-.77-.9A.84.84,0,0,1,277.12,282.66Z" style="fill:#407BFF"></path><path d="M279.14,283.7a.84.84,0,1,1-.77-.9A.85.85,0,0,1,279.14,283.7Z" style="fill:#407BFF"></path><path d="M281.21,284.75a.88.88,0,0,1-1.75-.14.88.88,0,1,1,1.75.14Z" style="fill:#407BFF"></path><path d="M283.5,285.9a.94.94,0,0,1-1.88-.15.94.94,0,0,1,1.88.15Z" style="fill:#407BFF"></path><path d="M451.77,371.89a2.75,2.75,0,1,1-2.53-3A2.76,2.76,0,0,1,451.77,371.89Z" style="fill:#407BFF"></path><path d="M420,355.83a2,2,0,0,1-3.94-.31,2,2,0,1,1,3.94.31Z" style="fill:#407BFF"></path><path d="M430,360.87a2.21,2.21,0,1,1-2-2.37A2.21,2.21,0,0,1,430,360.87Z" style="fill:#407BFF"></path><path d="M440.87,366.41a2.41,2.41,0,1,1-2.22-2.59A2.42,2.42,0,0,1,440.87,366.41Z" style="fill:#407BFF"></path><path d="M336.68,313.05a1.56,1.56,0,1,1-3.11-.24,1.56,1.56,0,0,1,3.11.24Z" style="fill:#407BFF"></path><path d="M332.57,310.93a1.56,1.56,0,1,1-3.11-.24,1.54,1.54,0,0,1,1.67-1.43A1.56,1.56,0,0,1,332.57,310.93Z" style="fill:#407BFF"></path><path d="M315.41,302.2a1.29,1.29,0,1,1-1.19-1.39A1.3,1.3,0,0,1,315.41,302.2Z" style="fill:#407BFF"></path><path d="M318.45,303.77a1.29,1.29,0,1,1-2.58-.2,1.28,1.28,0,0,1,1.39-1.19A1.3,1.3,0,0,1,318.45,303.77Z" style="fill:#407BFF"></path><path d="M321.92,305.49a1.45,1.45,0,1,1-1.34-1.56A1.45,1.45,0,0,1,321.92,305.49Z" style="fill:#407BFF"></path><path d="M325.37,307.25a1.51,1.51,0,1,1-1.39-1.63A1.51,1.51,0,0,1,325.37,307.25Z" style="fill:#407BFF"></path><path d="M328.73,309a1.51,1.51,0,1,1-1.39-1.62A1.51,1.51,0,0,1,328.73,309Z" style="fill:#407BFF"></path><path d="M312.36,300.63a1.28,1.28,0,0,1-1.39,1.19,1.29,1.29,0,1,1,1.39-1.19Z" style="fill:#407BFF"></path><path d="M309.42,299.12a1.29,1.29,0,0,1-1.39,1.19,1.3,1.3,0,0,1,.2-2.59A1.29,1.29,0,0,1,309.42,299.12Z" style="fill:#407BFF"></path><path d="M306.56,297.67a1.23,1.23,0,1,1-1.13-1.33A1.22,1.22,0,0,1,306.56,297.67Z" style="fill:#407BFF"></path><path d="M303.67,296.18a1.22,1.22,0,0,1-1.32,1.13,1.23,1.23,0,1,1,.19-2.46A1.23,1.23,0,0,1,303.67,296.18Z" style="fill:#407BFF"></path><path d="M300.9,294.75a1.23,1.23,0,1,1-1.13-1.33A1.23,1.23,0,0,1,300.9,294.75Z" style="fill:#407BFF"></path><path d="M298.27,293.39a1.23,1.23,0,1,1-1.14-1.33A1.25,1.25,0,0,1,298.27,293.39Z" style="fill:#407BFF"></path><path d="M286,287.13a1,1,0,0,1-1.09.94,1,1,0,0,1-.94-1.1,1,1,0,0,1,2,.16Z" style="fill:#407BFF"></path><path d="M288.33,288.34a1.08,1.08,0,0,1-1.15,1,1.07,1.07,0,1,1,1.15-1Z" style="fill:#407BFF"></path><path d="M290.65,289.51a1.11,1.11,0,1,1-1-1.19A1.1,1.1,0,0,1,290.65,289.51Z" style="fill:#407BFF"></path><path d="M293,290.7a1.14,1.14,0,1,1-1-1.22A1.13,1.13,0,0,1,293,290.7Z" style="fill:#407BFF"></path><path d="M295.49,292a1.17,1.17,0,1,1-1.08-1.26A1.17,1.17,0,0,1,295.49,292Z" style="fill:#407BFF"></path><path d="M393.7,342.31a1.9,1.9,0,1,1-1.75-2A1.9,1.9,0,0,1,393.7,342.31Z" style="fill:#407BFF"></path><path d="M385.38,338a1.9,1.9,0,1,1-1.75-2A1.9,1.9,0,0,1,385.38,338Z" style="fill:#407BFF"></path><path d="M378.1,334.27a1.9,1.9,0,1,1-1.75-2A1.9,1.9,0,0,1,378.1,334.27Z" style="fill:#407BFF"></path><path d="M371.27,330.74a1.91,1.91,0,1,1-1.75-2A1.91,1.91,0,0,1,371.27,330.74Z" style="fill:#407BFF"></path><path d="M364.91,327.46a1.91,1.91,0,1,1-1.75-2A1.91,1.91,0,0,1,364.91,327.46Z" style="fill:#407BFF"></path><path d="M358.87,324.35a1.9,1.9,0,1,1-1.75-2.05A1.9,1.9,0,0,1,358.87,324.35Z" style="fill:#407BFF"></path><circle cx="345.06" cy="318.06" r="1.7" style="fill:#407BFF"></circle><path d="M352.81,321.28a1.77,1.77,0,1,1-3.53-.27,1.76,1.76,0,0,1,1.9-1.63A1.78,1.78,0,0,1,352.81,321.28Z" style="fill:#407BFF"></path><path d="M341.14,315.35a1.59,1.59,0,0,1-1.7,1.46,1.59,1.59,0,1,1,.24-3.17A1.58,1.58,0,0,1,341.14,315.35Z" style="fill:#407BFF"></path><path d="M401.61,346.39a1.9,1.9,0,1,1-1.75-2A1.9,1.9,0,0,1,401.61,346.39Z" style="fill:#407BFF"></path><path d="M410.21,350.82a1.91,1.91,0,1,1-1.75-2A1.9,1.9,0,0,1,410.21,350.82Z" style="fill:#407BFF"></path><path d="M233,277.49a.75.75,0,1,0,1.5-.12.75.75,0,0,0-.81-.69A.74.74,0,0,0,233,277.49Z" style="fill:#407BFF"></path><path d="M234.33,276.79a.76.76,0,1,0,.7-.82A.77.77,0,0,0,234.33,276.79Z" style="fill:#407BFF"></path><path d="M231.5,278.25a.76.76,0,1,0,.7-.82A.77.77,0,0,0,231.5,278.25Z" style="fill:#407BFF"></path><path d="M230,279a.76.76,0,1,0,1.51-.11A.76.76,0,1,0,230,279Z" style="fill:#407BFF"></path><path d="M228.36,279.83a.83.83,0,1,0,.77-.9A.83.83,0,0,0,228.36,279.83Z" style="fill:#407BFF"></path><path d="M226.63,280.73a.83.83,0,0,0,1.66-.13.84.84,0,0,0-.9-.77A.83.83,0,0,0,226.63,280.73Z" style="fill:#407BFF"></path><path d="M224.81,281.66a.82.82,0,0,0,.89.77.83.83,0,1,0-.13-1.66A.82.82,0,0,0,224.81,281.66Z" style="fill:#407BFF"></path><path d="M222.88,282.66a.84.84,0,1,0,.77-.9A.84.84,0,0,0,222.88,282.66Z" style="fill:#407BFF"></path><path d="M220.86,283.7a.84.84,0,1,0,.77-.9A.85.85,0,0,0,220.86,283.7Z" style="fill:#407BFF"></path><path d="M218.79,284.75a.88.88,0,0,0,1.75-.14.88.88,0,1,0-1.75.14Z" style="fill:#407BFF"></path><path d="M216.5,285.9a.93.93,0,0,0,1,.86.94.94,0,1,0-1-.86Z" style="fill:#407BFF"></path><path d="M48.23,371.89a2.75,2.75,0,1,0,2.53-3A2.76,2.76,0,0,0,48.23,371.89Z" style="fill:#407BFF"></path><path d="M80,355.83a2,2,0,0,0,3.94-.31,2,2,0,1,0-3.94.31Z" style="fill:#407BFF"></path><path d="M70.05,360.87a2.21,2.21,0,1,0,2-2.37A2.21,2.21,0,0,0,70.05,360.87Z" style="fill:#407BFF"></path><path d="M59.13,366.41a2.41,2.41,0,1,0,2.22-2.59A2.42,2.42,0,0,0,59.13,366.41Z" style="fill:#407BFF"></path><path d="M163.32,313.05a1.56,1.56,0,1,0,3.11-.24,1.56,1.56,0,0,0-3.11.24Z" style="fill:#407BFF"></path><path d="M167.43,310.93a1.56,1.56,0,1,0,3.11-.24,1.54,1.54,0,0,0-1.67-1.43A1.56,1.56,0,0,0,167.43,310.93Z" style="fill:#407BFF"></path><path d="M184.59,302.2a1.29,1.29,0,1,0,1.19-1.39A1.3,1.3,0,0,0,184.59,302.2Z" style="fill:#407BFF"></path><path d="M181.55,303.77a1.29,1.29,0,0,0,2.58-.2,1.28,1.28,0,0,0-1.39-1.19A1.3,1.3,0,0,0,181.55,303.77Z" style="fill:#407BFF"></path><path d="M178.08,305.49a1.45,1.45,0,1,0,1.34-1.56A1.45,1.45,0,0,0,178.08,305.49Z" style="fill:#407BFF"></path><path d="M174.63,307.25a1.51,1.51,0,1,0,1.39-1.63A1.51,1.51,0,0,0,174.63,307.25Z" style="fill:#407BFF"></path><path d="M171.27,309a1.51,1.51,0,1,0,1.39-1.62A1.51,1.51,0,0,0,171.27,309Z" style="fill:#407BFF"></path><path d="M187.64,300.63a1.28,1.28,0,0,0,1.39,1.19,1.29,1.29,0,1,0-1.39-1.19Z" style="fill:#407BFF"></path><path d="M190.58,299.12a1.29,1.29,0,0,0,1.39,1.19,1.3,1.3,0,0,0-.2-2.59A1.29,1.29,0,0,0,190.58,299.12Z" style="fill:#407BFF"></path><path d="M193.44,297.67a1.23,1.23,0,1,0,1.13-1.33A1.22,1.22,0,0,0,193.44,297.67Z" style="fill:#407BFF"></path><path d="M196.33,296.18a1.22,1.22,0,0,0,1.32,1.13,1.23,1.23,0,1,0-.19-2.46A1.23,1.23,0,0,0,196.33,296.18Z" style="fill:#407BFF"></path><path d="M199.1,294.75a1.23,1.23,0,1,0,1.13-1.33A1.23,1.23,0,0,0,199.1,294.75Z" style="fill:#407BFF"></path><path d="M201.73,293.39a1.23,1.23,0,1,0,1.14-1.33A1.25,1.25,0,0,0,201.73,293.39Z" style="fill:#407BFF"></path><path d="M214.05,287.13a1,1,0,0,0,1.09.94,1,1,0,0,0,.94-1.1,1,1,0,0,0-2,.16Z" style="fill:#407BFF"></path><path d="M211.67,288.34a1.08,1.08,0,0,0,1.15,1,1.07,1.07,0,1,0-1.15-1Z" style="fill:#407BFF"></path><path d="M209.35,289.51a1.11,1.11,0,1,0,1-1.19A1.1,1.1,0,0,0,209.35,289.51Z" style="fill:#407BFF"></path><path d="M207,290.7a1.14,1.14,0,1,0,1-1.22A1.13,1.13,0,0,0,207,290.7Z" style="fill:#407BFF"></path><path d="M204.51,292a1.17,1.17,0,1,0,1.08-1.26A1.17,1.17,0,0,0,204.51,292Z" style="fill:#407BFF"></path><circle cx="108.2" cy="342.16" r="1.9" style="fill:#407BFF"></circle><path d="M114.62,338a1.9,1.9,0,1,0,1.75-2A1.9,1.9,0,0,0,114.62,338Z" style="fill:#407BFF"></path><path d="M121.9,334.27a1.9,1.9,0,1,0,1.75-2A1.9,1.9,0,0,0,121.9,334.27Z" style="fill:#407BFF"></path><path d="M128.73,330.74a1.91,1.91,0,1,0,1.75-2A1.91,1.91,0,0,0,128.73,330.74Z" style="fill:#407BFF"></path><path d="M135.09,327.46a1.91,1.91,0,1,0,1.75-2A1.91,1.91,0,0,0,135.09,327.46Z" style="fill:#407BFF"></path><path d="M141.13,324.35a1.9,1.9,0,1,0,1.75-2.05A1.9,1.9,0,0,0,141.13,324.35Z" style="fill:#407BFF"></path><circle cx="154.94" cy="318.06" r="1.7" style="fill:#407BFF"></circle><path d="M147.19,321.28a1.77,1.77,0,1,0,3.53-.27,1.76,1.76,0,0,0-1.9-1.63A1.78,1.78,0,0,0,147.19,321.28Z" style="fill:#407BFF"></path><path d="M158.86,315.35a1.59,1.59,0,0,0,1.7,1.46,1.59,1.59,0,1,0-.24-3.17A1.58,1.58,0,0,0,158.86,315.35Z" style="fill:#407BFF"></path><path d="M98.39,346.39a1.9,1.9,0,1,0,1.75-2A1.9,1.9,0,0,0,98.39,346.39Z" style="fill:#407BFF"></path><path d="M89.79,350.82a1.91,1.91,0,1,0,1.75-2A1.9,1.9,0,0,0,89.79,350.82Z" style="fill:#407BFF"></path></g><g id="freepik--speech-bubble--inject-30"><path d="M188.17,85.14A21.73,21.73,0,0,1,151.85,98.9L141,100.49l5.45-9.4a21.74,21.74,0,0,1,22.39-29.83A21.74,21.74,0,0,1,188.17,85.14Z" style="fill:#fff"></path><path d="M188.17,85.14a21.93,21.93,0,0,1-4.38,11,24.91,24.91,0,0,1-2,2.26,25.2,25.2,0,0,1-2.3,1.95,21.89,21.89,0,0,1-11.1,4.31,20.28,20.28,0,0,1-3,.06,19.08,19.08,0,0,1-3-.31,22,22,0,0,1-10.75-5.31l.26.07L141,100.87l-.79.12.4-.69,5.41-9.42,0,.37a21.94,21.94,0,0,1,1.34-19.38,21.83,21.83,0,0,1,16.08-10.73,22,22,0,0,1,9.83.91,22.23,22.23,0,0,1,8.39,5.14A21.85,21.85,0,0,1,188.17,85.14Zm0,0a21.49,21.49,0,0,0-24.65-23.52,21.45,21.45,0,0,0-9,3.54,22.4,22.4,0,0,0-6.5,7.1,21.44,21.44,0,0,0-1.23,18.67l.08.19-.11.18-5.47,9.38-.39-.57,10.89-1.52.15,0,.1.1A21.47,21.47,0,0,0,162.47,104a19.48,19.48,0,0,0,2.95.36,20.91,20.91,0,0,0,8.78-1.29,20.32,20.32,0,0,0,5.25-2.82,24.75,24.75,0,0,0,2.29-1.92,23.32,23.32,0,0,0,2-2.24A21.83,21.83,0,0,0,188.17,85.14Z" style="fill:#263238"></path><polygon points="164.01 95.28 154.72 85.88 157.84 82.8 163.26 88.29 174.53 70.62 178.23 72.98 164.01 95.28" style="fill:#407BFF"></polygon></g><g id="freepik--Character--inject-30"><path d="M182,448.11c-2.2.71-65.1-.09-67.47-1.65-.92-.57-1.33-9.74-1.52-20.84v-.35c0-2.28,3-40.64,3-40.64L158,385l-4.45,40.3,0,.69s23.94,11.07,26.37,13.05S184.18,447.4,182,448.11Z" style="fill:#eb9481"></path><path d="M182,448.11c-2.2.71-65.1-.09-67.47-1.65-.91-.57-1.33-9.74-1.52-20.84v-.35c0-.6.19-3.73.5-8h41l-.89,8.07,0,.69s23.94,11.07,26.37,13.05S184.18,447.4,182,448.11Z" style="fill:#ebebeb"></path><path d="M182,448.1c-1.14.37-18.22.33-34.93,0-3.36-.07-6.69-.14-9.88-.23-11.91-.32-21.75-.81-22.67-1.41s-1.32-9.48-1.5-20.38c0-.15,0-.3,0-.46s0-.24,0-.35h0l40.53.06,0,.7s23.94,11.07,26.37,13.05S184.18,447.4,182,448.1Z" style="fill:#407BFF"></path><path d="M182,448.1c-1.14.37-18.22.33-34.93,0-3.36-.07-6.69-.14-9.88-.23-11.91-.32-21.75-.81-22.67-1.41s-1.32-9.48-1.5-20.38c0-.15,0-.3,0-.46s0-.24,0-.35h0l40.53.06,0,.7s23.94,11.07,26.37,13.05S184.18,447.4,182,448.1Z" style="opacity:0.30000000000000004"></path><path d="M181.29,445.66c-10.6-.4-53.38-1-63.89-.58-.09,0-.09.06,0,.07,10.49.62,53.29.87,63.89.68C181.51,445.83,181.52,445.67,181.29,445.66Z" style="fill:#263238"></path><path d="M158.08,425.51c-4.16-.83-9.28-.26-12.5,2.68-.13.11,0,.29.17.25a58.45,58.45,0,0,1,12.3-2.4A.27.27,0,0,0,158.08,425.51Z" style="fill:#263238"></path><path d="M161.07,427.36c-4.17-.83-9.28-.25-12.5,2.68-.13.11,0,.29.17.25a58.45,58.45,0,0,1,12.3-2.4A.27.27,0,0,0,161.07,427.36Z" style="fill:#263238"></path><path d="M164.05,429.22c-4.16-.83-9.27-.26-12.49,2.67-.13.12,0,.29.17.25a59.09,59.09,0,0,1,12.3-2.4A.26.26,0,0,0,164.05,429.22Z" style="fill:#263238"></path><path d="M147.05,448.1c-3.36-.07-6.69-.14-9.88-.23-11.91-.32-21.75-.81-22.67-1.41s-1.32-9.48-1.5-20.38c0-.15,0-.3,0-.46s0-.24,0-.35h0C118.58,429.16,138.15,442.18,147.05,448.1Z" style="opacity:0.1"></path><path d="M156,425.48H111.69s-2.5-5.82-1.74-14.76c2.48-29.16,9.75-91.48,9.48-92.89-.46-2.37-3.13-13.08-6.7-27.06-1.11-4.38-2.32-9.08-3.57-13.95-3.38-13.16-7.11-27.54-10.35-40.06-4.87-18.75-8.68-33.31-8.68-33.31h38.39s4.48,14.18,10.12,32.63c9.2,30,21.48,71.26,22.7,81.3,1.5,12.34-.39,68.6-2.33,94.71A42.14,42.14,0,0,1,156,425.48Z" style="fill:#37474f"></path><path d="M161.25,366.71c-.55,16.76-1.39,34-2.24,45.38a42.32,42.32,0,0,1-3,13.39h-44.3s-2.5-5.82-1.74-14.76c1-11.45,2.69-28,4.39-44Z" style="fill:#407BFF"></path><path d="M154,417.75c-6.92-.14-4.93-.2-11.85-.26-3.39,0-25.64-.23-28.8.3a.07.07,0,0,0,0,.14c3.16.52,25.41.32,28.8.29,6.92-.07,4.93-.12,11.85-.27A.1.1,0,0,0,154,417.75Z" style="fill:#263238"></path><path d="M128,311.37c-1.49-6.55-3.71-13-5.64-19.39q-5.9-19.59-11.86-39.16-3-9.78-6-19.56-1.52-4.94-3.06-9.86c-1-3.22-2.15-6.41-3.06-9.65-.37-1.32-.58-.59-.1,1.08,1,3.38,1.9,6.76,2.88,10.13q2.94,10,5.9,20,5.89,19.91,11.89,39.78l6,19.94a80.06,80.06,0,0,1,2.45,9.64,43.91,43.91,0,0,1,.4,10.31c-.43,6.93-1.23,13.86-1.87,20.77L124,366.2q-1.91,20.69-3.78,41.37c-.16,1.75-.31,3.49-.45,5.24,0,.59.84.54.91,0,1.48-13.63,2.63-27.31,3.9-41s2.55-27.18,3.81-40.77c.32-3.41.68-6.83.68-10.26A42.1,42.1,0,0,0,128,311.37Z" style="fill:#263238"></path><path d="M124.16,203.45c-2.66,20.62-7.73,59.28-11.43,87.33-8.66-34-22.6-87.32-22.6-87.32Z" style="fill:#263238"></path><path d="M133.17,448.72c-2.21.72-65.11.15-67.48-1.39-.92-.57-1.37-9.74-1.6-20.84v-.35c0-2.28-.09-4.64-.1-7,0-.33,0-.66,0-1-.15-16,1-32.63,1-32.63l41.12.26-1.15,32.33,0,1.28-.23,6.69,0,.69s24,11,26.42,13S135.37,448,133.17,448.72Z" style="fill:#eb9481"></path><path d="M133.17,448.72c-2.21.72-65.11.15-67.48-1.39-.92-.57-1.37-9.74-1.6-20.84v-.35c0-2.28-.09-4.64-.1-7,0-.33,0-.66,0-1l41,0,0,1.28-.23,6.69,0,.69s24,11,26.42,13S135.37,448,133.17,448.72Z" style="fill:#ebebeb"></path><path d="M133.17,448.72c-2.21.72-65.11.15-67.48-1.39-.92-.57-1.37-9.74-1.6-20.84v-.35l40.58-.08,0,.69s24,11,26.42,13S135.37,448,133.17,448.72Z" style="fill:#407BFF"></path><path d="M133.17,448.72c-2.21.72-65.11.15-67.48-1.39-.92-.57-1.37-9.74-1.6-20.84v-.35l40.58-.08,0,.69s24,11,26.42,13S135.37,448,133.17,448.72Z" style="opacity:0.30000000000000004"></path><path d="M132.48,446.28c-10.6-.36-53.39-.8-63.9-.35-.08,0-.08.07,0,.07,10.5.58,53.29.68,63.9.45C132.7,446.45,132.7,446.29,132.48,446.28Z" style="fill:#263238"></path><path d="M109.19,426.22c-4.17-.82-9.27-.23-12.49,2.72-.12.11,0,.29.17.24a59,59,0,0,1,12.3-2.44A.26.26,0,0,0,109.19,426.22Z" style="fill:#263238"></path><path d="M112.18,428.06c-4.16-.82-9.27-.22-12.49,2.72-.12.11,0,.29.18.25a59.09,59.09,0,0,1,12.29-2.45A.26.26,0,0,0,112.18,428.06Z" style="fill:#263238"></path><path d="M115.18,429.9c-4.17-.82-9.27-.22-12.49,2.72-.12.12,0,.29.18.25a58.31,58.31,0,0,1,12.29-2.44A.27.27,0,0,0,115.18,429.9Z" style="fill:#263238"></path><path d="M127.28,203.45a155.31,155.31,0,0,1-5,30.28c-.34,1.2-.7,2.38-1.1,3.52a68.66,68.66,0,0,0-11.06,5.69s-.48,17.41-.92,33.89c-.49,18.43-1,39-.88,43.34.29,12.44,1,67.61.32,93.05a38.45,38.45,0,0,1-2.34,12.93l-43.29.2a23.26,23.26,0,0,1-2.88-13.77c2.23-27.66,9-87.76,9-92.35-.09-9.61,2.18-52.05,3.93-83,1.08-19.07,2-33.77,2-33.77Z" style="fill:#37474f"></path><path d="M108.6,413.22a38.45,38.45,0,0,1-2.34,12.93l-43.29.2a23.26,23.26,0,0,1-2.88-13.77c.94-11.7,2.71-29.22,4.42-45.87h44.31C108.91,383.81,108.89,401.61,108.6,413.22Z" style="fill:#407BFF"></path><path d="M104.71,418.1c-6.92-.12-4.93-.18-11.85-.22-3.39,0-25.64-.11-28.8.43a.07.07,0,0,0,0,.14c3.16.51,25.41.22,28.8.17,6.92-.1,4.93-.15,11.85-.32A.1.1,0,0,0,104.71,418.1Z" style="fill:#263238"></path><path d="M78.78,210C78,235.29,77.07,260.56,76,285.81s-2.65,50.68-4.77,76c-1.18,14.13-2.29,34-3.81,48.09,0,.09.13.12.14,0,3.3-25.07,5.13-56.06,6.74-81.28s2.71-50.48,3.57-75.74c.48-14.29.85-28.58,1.27-42.87C79.1,209.8,78.78,209.82,78.78,210Z" style="fill:#263238"></path><path d="M116.5,227.53c.13-1,.25-2.06.38-3.08.23-1.89.56-3.76.83-5.64.63-4.26,1.27-8.53,2.1-12.76,0-.1.19-.08.18,0-.12,1.7-.26,3.4-.45,5.1s-.31,3.4-.5,5.09c-.38,3.36-.74,6.73-1.22,10.08-.18,1.29-.91,3.62,1,4,1.47.27,2.5-1.19,2.9-2.41a29.39,29.39,0,0,0,.85-4.66c.25-1.69.47-3.4.66-5.1.41-3.72.88-7.43,1.37-11.13,0-.11.19-.08.19,0a113.46,113.46,0,0,1-.49,11.36q-.28,2.72-.66,5.42a19.37,19.37,0,0,1-1.09,5.06,4.09,4.09,0,0,1-3,2.54h-.09a.1.1,0,0,1,.06.1c0,.6,0,1.21,0,1.81a17.5,17.5,0,0,1-.24,1.77,11.79,11.79,0,0,1-.41,1.78,8,8,0,0,1-.3.82,8.42,8.42,0,0,1-.45.76.11.11,0,0,1-.2-.06h0V238h0a4.52,4.52,0,0,1,0-.52,8.79,8.79,0,0,1,.15-.87c.1-.57.24-1.14.38-1.71s.24-1.14.37-1.71.31-1.17.43-1.76a.07.07,0,0,1,0-.05,2.67,2.67,0,0,1-2.63-1.55A4.63,4.63,0,0,1,116.5,227.53Z" style="fill:#263238"></path><path d="M106.69,244a31.93,31.93,0,0,1,3.85-2.53,36.33,36.33,0,0,1,4.38-2.27c3-1.29,6-2.16,9.06-3.17.09,0,.16.12.07.15-3,1.18-5.79,2.74-8.65,4.14-1.41.69-2.83,1.34-4.26,2s-2.86,1.38-4.33,1.92A.13.13,0,0,1,106.69,244Z" style="fill:#263238"></path><path d="M83.61,218.18a25.11,25.11,0,0,0,6.16-.83c.93-.24,1.85-.54,2.76-.84A7.19,7.19,0,0,0,95,215.27c1.4-1.21,2-3.12,2.66-4.8a47.06,47.06,0,0,0,1.62-5.83c0-.1.16-.07.16,0a22.45,22.45,0,0,1-.84,6.62c-.5,1.83-1.18,3.87-2.65,5.15a10.4,10.4,0,0,1-5.65,2.06,26,26,0,0,1-6.71-.09C83.47,218.38,83.47,218.18,83.61,218.18Z" style="fill:#263238"></path><path d="M114.67,148.69c4.18,9.64,20.63,40.7,30.93,42.65,6.76,1.27,33.84-2.09,38.34-8.64,2-2.85-2-22.28-5.61-21.4s-25.29,4.33-28,3.63-23.35-23.24-31-28.76C106.17,126.64,112.41,143.5,114.67,148.69Z" style="fill:#eb9481"></path><path d="M114.67,148.69c4.18,9.64,19.42,38.71,29,42.92,3.84,1.68,16.43,2.34,24.22,1.91,3.75-.21,7.44-4.56,7.44-4.56l-4.28-26.79a15.64,15.64,0,0,0-6-.94c-6.33.58-13.3,2.72-15.16,2.24-2.68-.7-22.88-21.78-30.52-27.3C106.17,126.64,112.41,143.5,114.67,148.69Z" style="fill:#455a64"></path><path d="M73.81,215.25s23.79-.08,43.18-.12l4.24-9.16c.57,0,2,9.14,2,9.14,7.84,0,9.09,0,9.09,0,0,.37,2.69-3.72,1.83-10.48-2.11-16.72-7.54-49.74-19.71-71.76-1.17-2.11-11.47-4.35-16-.15-15.28,14.16-24,52.94-27.23,71C70.28,209.14,73.81,215.44,73.81,215.25Z" style="fill:#407BFF"></path><path d="M121.23,206a33,33,0,0,0,.43-8.18c0-1.37-.14-2.74-.21-4.1l-.37-4.09c-.56-5.45-1.36-10.87-2.25-16.28s-1.88-10.8-2.92-16.19L112.73,141c.72,2.65,1.38,5.31,2.07,8s1.24,5.35,1.86,8c1.2,5.36,2.2,10.76,3.15,16.18s1.64,10.88,2,16.37l.24,4.12c0,1.38.09,2.76.07,4.13s-.08,2.76-.19,4.13A19.22,19.22,0,0,1,121.23,206Z" style="fill:#263238"></path><path d="M113.11,141.06c-3.17.48-9.35-3.71-11.21-8.34-.12-.32.71-3.4,1.54-7.2.5-2.3,1-4.88,1.29-7.26,0-.49,14.52,5.42,14.52,5.42a38.3,38.3,0,0,0-2.54,9,5.51,5.51,0,0,0,0,1,.85.85,0,0,1,0,.16C116.77,135.72,116.51,140.54,113.11,141.06Z" style="fill:#eb9481"></path><path d="M116.7,133.66c0,.05,0,.1,0,.16a9.45,9.45,0,0,1-1.54-.1c-8.78-1.25-9.78-12.55-9.9-15.4,2.62.7,14,5.36,14,5.36a38.63,38.63,0,0,0-2.55,9A5.45,5.45,0,0,0,116.7,133.66Z" style="fill:#263238"></path><path d="M120.84,112.41c-1,3.77.89,7.53,4.19,8.4s6.79-1.48,7.78-5.25-.88-7.53-4.19-8.4S121.83,108.64,120.84,112.41Z" style="fill:#407BFF"></path><path d="M118.84,112.14c-1.1,4.19,1,8.37,4.66,9.34s7.56-1.64,8.66-5.84-1-8.37-4.66-9.34S119.94,108,118.84,112.14Z" style="fill:#c7c7c7"></path><path d="M107.45,98.73c-3,4.74-4.22,20.38-1.43,24.68,4,6.24,12.62,9,18.42,3.73,5.63-5.14,6.91-25.55,3.62-29.66C123.21,91.41,111.81,91.73,107.45,98.73Z" style="fill:#eb9481"></path><path d="M119.61,111.54s-.09,0-.09.09c-.06,1.05-.3,2.25-1.29,2.52a0,0,0,0,0,0,.06C119.41,114.15,119.72,112.55,119.61,111.54Z" style="fill:#263238"></path><path d="M118.76,110.36c-1.68-.27-2.11,3.11-.55,3.37S120.17,110.59,118.76,110.36Z" style="fill:#263238"></path><path d="M125.65,112.47s.08.06.07.1c-.16,1.05-.17,2.27.73,2.74,0,0,0,.07,0,.06C125.3,115.06,125.33,113.44,125.65,112.47Z" style="fill:#263238"></path><path d="M126.73,111.49c1.7.09,1.41,3.49-.17,3.41S125.3,111.42,126.73,111.49Z" style="fill:#263238"></path><path d="M117.62,108.65a13.43,13.43,0,0,0,1.37-.3,2.23,2.23,0,0,0,1.33-.57.72.72,0,0,0,0-.88,1.8,1.8,0,0,0-1.77-.41,2.64,2.64,0,0,0-1.64.94A.77.77,0,0,0,117.62,108.65Z" style="fill:#263238"></path><path d="M128.25,110a12.08,12.08,0,0,1-1.3-.51,2.32,2.32,0,0,1-1.23-.78.72.72,0,0,1,.15-.87,1.78,1.78,0,0,1,1.81-.11,2.59,2.59,0,0,1,1.47,1.19A.77.77,0,0,1,128.25,110Z" style="fill:#263238"></path><path d="M117.42,121.15c.22.28.43.65.81.73a3.07,3.07,0,0,0,1.16-.12s.06,0,0,0a1.43,1.43,0,0,1-1.4.41,1.13,1.13,0,0,1-.71-1C117.3,121.12,117.39,121.11,117.42,121.15Z" style="fill:#263238"></path><path d="M118.91,118.15A3.65,3.65,0,0,0,121.1,120a4.9,4.9,0,0,0,1.28.22h.48a.26.26,0,0,0,.24-.21h0a.41.41,0,0,0,0-.11h0v-.09c.13-.81.2-2,.2-2,.28.18,1.7,1,1.73.62a54.45,54.45,0,0,0,0-11,.1.1,0,0,0-.19,0c-.36,3.37-.11,6.78-.41,10.17a6.22,6.22,0,0,0-1.63-.72c-.11,0-.1,2.39-.18,2.75a.1.1,0,0,1,0,0,5.05,5.05,0,0,1-3.56-1.61C119,118,118.86,118.06,118.91,118.15Z" style="fill:#263238"></path><path d="M122,119.79a4.34,4.34,0,0,1-1.86,1.1,2,2,0,0,1-1.17-.07c-.81-.33-.73-1.1-.49-1.74a4.68,4.68,0,0,1,.5-1A5.54,5.54,0,0,0,122,119.79Z" style="fill:#263238"></path><path d="M120.09,120.89a2,2,0,0,1-1.17-.07c-.81-.33-.73-1.1-.49-1.74A2,2,0,0,1,120.09,120.89Z" style="fill:#ff99ba"></path><path d="M106,110.67c3.8.35,5.2-6.48,5.2-6.48s6.63-.45,8-5.27c0,0,5.82,4.55,10.86,3.24s4.94-7.42,4.5-8.65c-1-2.8-5.39.26-5.39.26s-5.79-4.3-12.82-4.27c-5.73,0-9.08,5.09-9.08,5.09S104.17,95,103,97,103.53,110.45,106,110.67Z" style="fill:#263238"></path><path d="M109.62,104.09c5,1.15,8.65-1.88,9.85-6.65,0-.06.1,0,.09,0-.57,4.49-5.26,9.11-10,6.85A.12.12,0,0,1,109.62,104.09Z" style="fill:#263238"></path><path d="M107.42,94.51a.05.05,0,0,1,0,.1c-1.48.52-3.15.86-4.26,2-1.35,1.45-1.29,3.51-1,5.32.43,2.81,1.51,6.5,3.8,8.35.14.1,0,.29-.17.2-2.77-2-4-6.8-4.13-10.06C101.57,96.81,104,95,107.42,94.51Z" style="fill:#263238"></path><path d="M124.62,100.76a7,7,0,0,0,7.73.54c2.86-1.78,2.64-5.16,1.77-8,0-.15.15-.28.23-.13,1.32,2.58,1.07,6.3-1.32,8.21s-6.36,1.55-8.65-.27C124.18,100.92,124.43,100.61,124.62,100.76Z" style="fill:#263238"></path><path d="M107.93,112.06s-2.2-5.68-4.7-5-1.67,8.31.67,9.91a2.7,2.7,0,0,0,3.87-.55Z" style="fill:#eb9481"></path><path d="M103.52,109.23s-.06,0,0,.07c1.63,1.18,2.17,3.09,2.41,5a1.5,1.5,0,0,0-2.07-.93.06.06,0,0,0,0,.11,1.67,1.67,0,0,1,1.63,1,7.31,7.31,0,0,1,.5,1.65c.05.18.36.17.34,0v0C106.94,113.75,105.94,110.07,103.52,109.23Z" style="fill:#263238"></path><path d="M104.07,107.74s.24-8.52,3.17-13c3.25-4.93,14.64-7.34,21.94-1,0,0-12-4.94-18.63,1.71-2.79,2.8-3.68,12.76-3.68,12.76Z" style="fill:#c7c7c7"></path><path d="M111.59,112.78c-.36,4.32-3.74,7.56-7.52,7.23s-6.57-4.08-6.2-8.4,3.74-7.56,7.53-7.24S112,108.46,111.59,112.78Z" style="fill:#c7c7c7"></path><path d="M109.61,112.36c-.33,3.88-3.36,6.8-6.76,6.51s-5.9-3.68-5.57-7.56,3.36-6.79,6.77-6.5S110,108.48,109.61,112.36Z" style="fill:#407BFF"></path><path d="M100.7,131.65c0-.17,1.55-3.4,1.55-3.4l10,7,1.16,4.46,1-4.37,2.78-1.93-.09,3.38s-.9,4.56-4.33,4.44S102,136.92,100.7,131.65Z" style="fill:#455a64"></path><path d="M113,148.52s-4.4-3.69-1.64-6.49,6.51,1.56,6.51,1.56Z" style="fill:#263238"></path><path d="M146.48,171.82h0l1.71,5.36.58,1.76-1.78-.53-5.38-1.66h0l-28.73-28.39,4.88-4.93,28.73,28.39Z" style="fill:#263238"></path><polygon points="148.2 177.18 148.77 178.94 146.99 178.41 148.2 177.18" style="fill:#37474f"></polygon><rect x="111.68" y="145.51" width="8.09" height="1.61" transform="translate(-69.69 125.79) rotate(-45.34)" style="fill:#37474f"></rect><rect x="112.95" y="146.76" width="8.09" height="1.61" transform="translate(-70.2 127.07) rotate(-45.34)" style="fill:#37474f"></rect><polygon points="114.72 151 116.55 149.14 125.94 160.44 125.22 161.08 114.72 151" style="fill:#37474f"></polygon><path d="M89.4,143.41c-12.6,21.32-24.73,55.4-15.55,60.26,8.39,4.44,33.43-6.56,48.58-16.38,2.88-1.86-15.52-27-18.38-24.68a92.73,92.73,0,0,1-9.46,6.83c-.85.43,2.86-6.64,5.39-22.3C102.55,131.21,96.6,131.22,89.4,143.41Z" style="fill:#eb9481"></path><path d="M143.65,152.33c.68,3.22-7.4,4.21-7.4,4.21a6.08,6.08,0,0,1,3.08,2.75c1.09,2.25-2,4.94-2,4.94a7.56,7.56,0,0,1,2.79,3.42c.82,2.26-1.87,5.41-1.87,5.41a6.56,6.56,0,0,1,.56,4.55c-1.13,4.06-7.47,5.44-11.23,7.07a86.21,86.21,0,0,0-12,6.74L102.36,164s14.94-13.6,19.75-14.35C126.15,149,142.61,147.41,143.65,152.33Z" style="fill:#eb9481"></path><path d="M136.16,156.47a54.67,54.67,0,0,0-13.38,1.08c-.09,0-.07.16,0,.15,4.34-.78,9-.42,13.36-1A.11.11,0,0,0,136.16,156.47Z" style="fill:#263238"></path><path d="M137.18,163.93a11.5,11.5,0,0,0-3,.45c-1,.23-2.11.48-3.16.75-2.09.53-4.18,1.11-6.25,1.75-.09,0-.07.18,0,.15q3.14-.79,6.3-1.46,1.59-.33,3.18-.63a13.56,13.56,0,0,0,3-.72A.15.15,0,0,0,137.18,163.93Z" style="fill:#263238"></path><path d="M138.2,173.08a8.18,8.18,0,0,0-2.7.55l-2.86.77c-1.91.51-3.82,1-5.74,1.45a.08.08,0,1,0,0,.15c2-.44,3.92-.84,5.87-1.3,1-.22,1.92-.44,2.88-.68a7.58,7.58,0,0,0,2.55-.84S138.24,173.09,138.2,173.08Z" style="fill:#263238"></path><path d="M95.5,168.12s5.38-18.79,5.49-27.6-5.21-8.43-11.58,1.61-27,52.28-17.78,61.17,37.49-5.42,39.58-6.53,4.38-5.35,4.38-5.35L101,165a12.34,12.34,0,0,0-3.43,1.33C96.72,167,95.5,168.12,95.5,168.12Z" style="fill:#455a64"></path><path d="M95.13,168.18c-3.93,2.79-8.25,6.72-10.33,9.65-.06.09,0,.2.12.12,2.17-2.31,8.81-7.72,10.5-9.24C95.94,168.25,96.26,167.38,95.13,168.18Z" style="fill:#263238"></path><polygon points="132.24 191.52 166.48 196.13 179.47 148.54 145.23 143.93 132.24 191.52" style="fill:#263238"></polygon><polygon points="133.92 191.74 168.16 196.35 181.15 148.77 146.91 144.16 133.92 191.74" style="fill:#37474f"></polygon><path d="M162.32,168.74a3.74,3.74,0,0,1-4.07,2.84,3,3,0,0,1-2.59-3.74,3.74,3.74,0,0,1,4.07-2.84A3,3,0,0,1,162.32,168.74Z" style="fill:#fff"></path><path d="M180.36,158c1.71,3.73,6.08,8.38,6.41,11.42a3.49,3.49,0,0,1-2,3.66s3,1.55,2.84,4.35c-.08,1.44-2.45,2.57-2.45,2.57a4.16,4.16,0,0,1,2.05,3.82c-.23,2-2.57,2.82-2.57,2.82s1.65,2.34.77,4.28c-1.8,3.92-18.88,3.71-21.44-2.62-1.19-2.94,3-2.66,3-2.66s-5.9-1.85-5.94-5.38,5.34-2.83,5.34-2.83-5.7-1.84-5.38-5.5,5.62-2.19,5.62-2.19-3.77-2.62-2.88-5.37c1.46-4.53,8.58,1.28,12.35.44l2.15-6.17Z" style="fill:#eb9481"></path><path d="M183.72,163.42c-1.32-3.67,3.26-8.13,2.51-11.82-1-5-6.68-.18-8,7l-.06,5.79Z" style="fill:#eb9481"></path><path d="M184.3,186.82s.07.07,0,.09a29.68,29.68,0,0,1-17.58-1.27c-.18-.08-.13-.39.08-.35A60.88,60.88,0,0,0,184.3,186.82Z" style="fill:#263238"></path><path d="M185.25,180c.07,0,.07.1,0,.12a27.73,27.73,0,0,1-19.09-2.58c-.2-.11-.27-.42,0-.3C170.21,179.19,179.74,180.43,185.25,180Z" style="fill:#263238"></path><path d="M166.25,169.35c5.75,3,11.87,3.83,18.29,3.79.09,0,.08.12,0,.14-3.14.87-7.23.47-10.39-.11a17.11,17.11,0,0,1-8-3.62C166.05,169.48,166.12,169.29,166.25,169.35Z" style="fill:#263238"></path></g></svg>